# xmcd
#
# Track frame offsets: 
#        150
#        12297
#        32242
#        48787
#        62057
#        77347
#        100890
#        120590
#        143545
#        161840
#        172807
#        190437
#        214665
#        237890
#
# Disc length: 3524 seconds
#
# Revision: 4
# Processed by: cddbd v1.5.1PL0 Copyright (c) Steve Scherf et al.
# Submitted via: ExactAudioCopy v0.95a5
#
DISCID=ae0dc20e
DTITLE=Various Artist - Blues Live From Mountain Stage
DYEAR=1995
DGENRE=Blues
TTITLE0=The Nighthawks - Leave My Woman Alone
TTITLE1=Tracy Nelson - It Hurts Me Too
TTITLE2=Paul Germia - Slidell Blues
TTITLE3=Snooky Pryor - That's The Way To Do It
TTITLE4=John Hammond - My Daddy Was A Jockey
TTITLE5=Charlie Musselwhite - Blues Why Do You Worry Me?
TTITLE6=Chris Smither - The Devil's Real
TTITLE7=Cephas and Wiggins - Black Cat On The Line
TTITLE8=William Clarke - Lonesome Bedroom Blues
TTITLE9=John Jackson - Louisiana Blues
TTITLE10=The Legendary Blues Band - Got Love If You Want It
TTITLE11=Johnnie Johnson - That'll Work
TTITLE12=Charles Brown - Quicksand Blues
TTITLE13=Duke Robillard - Gee I Wish
EXTD=
EXTT0=
EXTT1=
EXTT2=
EXTT3=
EXTT4=
EXTT5=
EXTT6=
EXTT7=
EXTT8=
EXTT9=
EXTT10=
EXTT11=
EXTT12=
EXTT13=
PLAYORDER=
